<?xml version="1.0" encoding="UTF-8" standalone="no"?>
<!DOCTYPE svg PUBLIC "-//W3C//DTD SVG 1.1//EN" "http://www.w3.org/Graphics/SVG/1.1/DTD/svg11.dtd">
<svg xmlns="http://www.w3.org/2000/svg" version="1.1" width="16" height="16" viewBox="0.00 0.00 240.00 240.00">
<path fill="#2e8555" d="
  M 99.66 81.43
  C 106.55 87.82 112.77 95.66 117.61 103.70
  A 0.65 0.65 0.0 0 0 118.73 103.69
  C 125.63 92.06 139.65 71.00 153.25 68.41
  C 157.46 67.60 162.32 68.59 166.78 69.23
  Q 167.25 69.30 167.25 69.77
  L 167.25 87.99
  Q 167.25 88.52 166.73 88.45
  Q 153.93 86.81 144.71 94.47
  Q 134.60 102.88 127.09 116.41
  Q 126.87 116.80 127.13 117.16
  C 134.06 126.96 153.28 153.05 167.92 146.26
  C 175.77 142.63 179.52 128.83 181.03 121.23
  Q 181.14 120.67 181.70 120.74
  Q 193.06 122.30 203.94 118.77
  Q 204.54 118.57 204.46 119.20
  C 202.04 137.25 192.66 158.26 175.90 167.29
  C 162.90 174.28 145.97 171.12 135.66 160.84
  C 127.78 153.00 122.11 145.21 115.81 137.00
  A 0.62 0.62 0.0 0 0 114.79 137.07
  C 107.74 149.15 96.54 168.47 81.63 170.88
  C 56.42 174.94 39.14 157.99 31.04 135.91
  Q 30.89 135.50 31.32 135.50
  L 54.03 135.50
  A 0.79 0.79 0.0 0 1 54.80 136.10
  Q 55.80 139.89 58.03 142.76
  C 66.40 153.53 77.49 153.54 88.45 146.43
  C 95.99 141.54 102.21 133.01 106.28 125.10
  A 0.80 0.80 0.0 0 0 106.22 124.26
  C 99.35 114.37 91.51 104.28 82.06 96.70
  C 66.48 84.20 58.39 102.02 54.29 114.00
  Q 54.12 114.49 53.64 114.28
  C 45.92 110.76 38.07 108.81 30.63 114.23
  Q 30.23 114.52 30.30 114.03
  C 35.55 79.24 66.87 50.98 99.66 81.43
  Z"
/>
<circle fill="#2e8555" cx="193.40" cy="87.13" r="16.52"/>
</svg>
